<svg width="35" height="35" viewBox="0 0 35 35" fill="none" xmlns="http://www.w3.org/2000/svg">
<path d="M8.75 3.28125H6.5625C5.40218 3.28125 4.28938 3.74219 3.46891 4.56266C2.64844 5.38313 2.1875 6.49593 2.1875 7.65625V30.625C2.1875 31.7853 2.64844 32.8981 3.46891 33.7186C4.28938 34.5391 5.40218 35 6.5625 35H28.4375C29.5978 35 30.7106 34.5391 31.5311 33.7186C32.3516 32.8981 32.8125 31.7853 32.8125 30.625V7.65625C32.8125 6.49593 32.3516 5.38313 31.5311 4.56266C30.7106 3.74219 29.5978 3.28125 28.4375 3.28125H26.25V5.46875H28.4375C29.0177 5.46875 29.5741 5.69922 29.9843 6.10945C30.3945 6.51969 30.625 7.07609 30.625 7.65625V30.625C30.625 31.2052 30.3945 31.7616 29.9843 32.1718C29.5741 32.582 29.0177 32.8125 28.4375 32.8125H6.5625C5.98234 32.8125 5.42594 32.582 5.0157 32.1718C4.60547 31.7616 4.375 31.2052 4.375 30.625V7.65625C4.375 7.07609 4.60547 6.51969 5.0157 6.10945C5.42594 5.69922 5.98234 5.46875 6.5625 5.46875H8.75V3.28125Z" fill="#FFDDDD"/>
<path d="M20.7812 2.1875C21.0713 2.1875 21.3495 2.30273 21.5546 2.50785C21.7598 2.71297 21.875 2.99117 21.875 3.28125V5.46875C21.875 5.75883 21.7598 6.03703 21.5546 6.24215C21.3495 6.44727 21.0713 6.5625 20.7812 6.5625H14.2188C13.9287 6.5625 13.6505 6.44727 13.4454 6.24215C13.2402 6.03703 13.125 5.75883 13.125 5.46875V3.28125C13.125 2.99117 13.2402 2.71297 13.4454 2.50785C13.6505 2.30273 13.9287 2.1875 14.2188 2.1875H20.7812ZM14.2188 0C13.3485 0 12.5139 0.345702 11.8986 0.961056C11.2832 1.57641 10.9375 2.41101 10.9375 3.28125V5.46875C10.9375 6.33899 11.2832 7.17359 11.8986 7.78894C12.5139 8.4043 13.3485 8.75 14.2188 8.75H20.7812C21.6515 8.75 22.4861 8.4043 23.1014 7.78894C23.7168 7.17359 24.0625 6.33899 24.0625 5.46875V3.28125C24.0625 2.41101 23.7168 1.57641 23.1014 0.961056C22.4861 0.345702 21.6515 0 20.7812 0L14.2188 0Z" fill="#FFDDDD"/>
</svg>
