<svg width="35" height="35" viewBox="0 0 35 35" fill="none" xmlns="http://www.w3.org/2000/svg">
<path fill-rule="evenodd" clip-rule="evenodd" d="M3.28125 3.28125C2.99117 3.28125 2.71297 3.39648 2.50785 3.6016C2.30273 3.80672 2.1875 4.08492 2.1875 4.375V14.875C2.1875 15.5932 2.32895 16.3043 2.60378 16.9678C2.87861 17.6313 3.28144 18.2342 3.78926 18.742C4.29708 19.2498 4.89995 19.6526 5.56345 19.9275C6.22695 20.2023 6.93808 20.3438 7.65625 20.3438H29.0784L21.7569 27.6631C21.5515 27.8685 21.4361 28.1471 21.4361 28.4375C21.4361 28.7279 21.5515 29.0065 21.7569 29.2119C21.9623 29.4173 22.2408 29.5326 22.5312 29.5326C22.8217 29.5326 23.1002 29.4173 23.3056 29.2119L32.4931 20.0244C32.595 19.9228 32.6758 19.8021 32.7309 19.6692C32.7861 19.5363 32.8145 19.3939 32.8145 19.25C32.8145 19.1061 32.7861 18.9637 32.7309 18.8308C32.6758 18.6979 32.595 18.5772 32.4931 18.4756L23.7431 9.72563C23.5377 9.52025 23.2592 9.40487 22.9687 9.40487C22.6783 9.40487 22.3997 9.52025 22.1944 9.72563C21.989 9.931 21.8736 10.2096 21.8736 10.5C21.8736 10.7904 21.989 11.069 22.1944 11.2744L29.0784 18.1562H7.65625C6.78601 18.1562 5.95141 17.8105 5.33605 17.1952C4.7207 16.5798 4.375 15.7452 4.375 14.875V4.375C4.375 4.08492 4.25977 3.80672 4.05465 3.6016C3.84953 3.39648 3.57133 3.28125 3.28125 3.28125Z" fill="#FFDDDD"/>
</svg>
