<svg width="19" height="19" viewBox="0 0 19 19" fill="none" xmlns="http://www.w3.org/2000/svg">
<g clip-path="url(#clip0_8_67)">
<path d="M13.4556 12.0962C14.5479 10.6184 15.0372 8.78619 14.8255 6.96614C14.6137 5.14609 13.7167 3.47241 12.3137 2.27994C10.9108 1.08747 9.10544 0.46415 7.25886 0.534692C5.41228 0.605235 3.66066 1.36443 2.35443 2.6604C1.0482 3.95636 0.28369 5.69352 0.21386 7.52433C0.144029 9.35514 0.774023 11.1446 1.9778 12.5346C3.18158 13.9247 4.87037 14.8129 6.7063 15.0215C8.54223 15.2301 10.3899 14.7437 11.8797 13.6597H11.8786C11.9124 13.7045 11.9485 13.747 11.9891 13.7883L16.3322 18.0943C16.5438 18.3041 16.8307 18.4221 17.13 18.4222C17.4292 18.4223 17.7162 18.3045 17.9279 18.0948C18.1396 17.8851 18.2586 17.6006 18.2587 17.3039C18.2588 17.0073 18.14 16.7227 17.9285 16.5128L13.5854 12.2069C13.545 12.1664 13.5017 12.1301 13.4556 12.0962ZM13.7467 7.79696C13.7467 8.60476 13.5862 9.40466 13.2744 10.151C12.9626 10.8973 12.5056 11.5754 11.9294 12.1466C11.3533 12.7178 10.6693 13.1709 9.91654 13.48C9.16378 13.7892 8.35698 13.9483 7.54219 13.9483C6.72741 13.9483 5.9206 13.7892 5.16784 13.48C4.41508 13.1709 3.7311 12.7178 3.15497 12.1466C2.57883 11.5754 2.12181 10.8973 1.81001 10.151C1.4982 9.40466 1.33772 8.60476 1.33772 7.79696C1.33772 6.16553 1.9914 4.60092 3.15497 3.44732C4.31853 2.29373 5.89666 1.64565 7.54219 1.64565C9.18772 1.64565 10.7659 2.29373 11.9294 3.44732C13.093 4.60092 13.7467 6.16553 13.7467 7.79696Z" fill="#EBDFDF"/>
</g>
<defs>
<clipPath id="clip0_8_67">
<rect width="18.0494" height="17.8947" fill="white" transform="translate(0.209961 0.526367)"/>
</clipPath>
</defs>
</svg>
